HIERARCHY
ROOT SpineBase
{
  OFFSET 0.000000 0.000000 0.000000
  CHANNELS 6 Xposition Yposition Zposition Zrotation Xrotation Yrotation
  JOINT SpineMid
  {
    OFFSET -0.000000 30.935144 0.000000
    CHANNELS 3 Zrotation Xrotation Yrotation
    JOINT SpineShoulder
    {
      OFFSET -0.236863 22.960027 -0.856940
      CHANNELS 3 Zrotation Xrotation Yrotation
      JOINT Neck
      {
        OFFSET -0.127052 7.567677 -0.520489
        CHANNELS 3 Zrotation Xrotation Yrotation
        JOINT Head
        {
          OFFSET -3.396755 13.956535 0.032235
          CHANNELS 3 Zrotation Xrotation Yrotation
          End Site
          {
            OFFSET 0 0 0
          }
        }
      }
      JOINT ShoulderLeft
      {
        OFFSET -15.880610 -5.326949 9.238518
        CHANNELS 3 Zrotation Xrotation Yrotation
        JOINT ElbowLeft
        {
          OFFSET -1.364638 -26.468221 0.131103
          CHANNELS 3 Zrotation Xrotation Yrotation
          JOINT WristLeft
          {
            OFFSET 0.449445 -26.313472 -0.955844
            CHANNELS 3 Zrotation Xrotation Yrotation
            JOINT HandLeft
            {
              OFFSET -0.215573 -4.171263 1.076187
              CHANNELS 3 Zrotation Xrotation Yrotation
              JOINT HandTipLeft
              {
                OFFSET 1.015778 -6.504658 1.051150
                CHANNELS 3 Zrotation Xrotation Yrotation
                End Site
                {
                  OFFSET 0 0 0
                }
              }
              JOINT ThumbLeft
              {
                OFFSET -2.031350 -2.441778 -0.141411
                CHANNELS 3 Zrotation Xrotation Yrotation
                End Site
                {
                  OFFSET 0 0 0
                }
              }
            }
          }
        }
      }
      JOINT ShoulderRight
      {
        OFFSET 13.129083 -3.879716 -8.566253
        CHANNELS 3 Zrotation Xrotation Yrotation
        JOINT ElbowRight
        {
          OFFSET 3.366394 -25.254123 -2.853739
          CHANNELS 3 Zrotation Xrotation Yrotation
          JOINT WristRight
          {
            OFFSET 2.710565 -22.831442 -6.793901
            CHANNELS 3 Zrotation Xrotation Yrotation
            JOINT HandRight
            {
              OFFSET 0.128625 -6.626420 -2.075464
              CHANNELS 3 Zrotation Xrotation Yrotation
              JOINT HandTipRight
              {
                OFFSET 0.829224 -6.235479 -0.434684
                CHANNELS 3 Zrotation Xrotation Yrotation
                End Site
                {
                  OFFSET 0 0 0
                }
              }
              JOINT ThumbRight
              {
                OFFSET -1.676614 -2.979090 -0.586290
                CHANNELS 3 Zrotation Xrotation Yrotation
                End Site
                {
                  OFFSET 0 0 0
                }
              }
            }
          }
        }
      }
    }
  }
  JOINT HipLeft
  {
    OFFSET -6.870791 -0.571098 0.077361
    CHANNELS 3 Zrotation Xrotation Yrotation
    JOINT KneeLeft
    {
      OFFSET 3.285945 -34.885235 3.892657
      CHANNELS 3 Zrotation Xrotation Yrotation
      JOINT AnkleLeft
      {
        OFFSET 7.892650 -33.228480 8.152987
        CHANNELS 3 Zrotation Xrotation Yrotation
        JOINT FootLeft
        {
          OFFSET -5.600861 -4.913338 -11.459117
          CHANNELS 3 Zrotation Xrotation Yrotation
          End Site
          {
            OFFSET 0 0 0
          }
        }
      }
    }
  }
  JOINT HipRight
  {
    OFFSET 5.194165 0.927519 -6.629125
    CHANNELS 3 Zrotation Xrotation Yrotation
    JOINT KneeRight
    {
      OFFSET 7.944616 -32.639160 -1.602397
      CHANNELS 3 Zrotation Xrotation Yrotation
      JOINT AnkleRight
      {
        OFFSET 8.900551 -35.310139 9.915298
        CHANNELS 3 Zrotation Xrotation Yrotation
        JOINT FootRight
        {
          OFFSET -5.742843 -4.917275 -11.419882
          CHANNELS 3 Zrotation Xrotation Yrotation
          End Site
          {
            OFFSET 0 0 0
          }
        }
      }
    }
  }
}
MOTION
Frames: 14
Frame Time: 0.033333
104.541857 75.411975 411.672882 0.000000 0.000000 29.068145 -0.000000 0.000000 -29.068145 -0.000000 0.000000 0.000000 -0.000000 0.000000 0.000000 0.000000 0.000000 0.000000 -0.000000 0.000000 0.000000 -0.000000 0.000000 0.000000 -0.000000 0.000000 0.000000 -0.000000 0.000000 0.000000 0.000000 0.000000 0.000000 0.000000 0.000000 0.000000 -0.000000 0.000000 0.000000 -0.000000 0.000000 0.000000 -0.000000 0.000000 0.000000 -0.000000 0.000000 0.000000 0.000000 0.000000 0.000000 0.000000 0.000000 0.000000 -0.000000 0.000000 -29.068145 -0.000000 0.000000 0.000000 -0.000000 0.000000 0.000000 0.000000 0.000000 0.000000 -0.000000 0.000000 -29.068145 -0.000000 0.000000 0.000000 -0.000000 0.000000 0.000000 0.000000 0.000000 0.000000
104.449576 75.417015 411.642704 0.087094 -0.120364 29.482192 -0.016579 0.147641 -29.482079 -0.000000 0.000000 0.000000 -0.000000 0.000000 0.000000 0.000000 0.000000 0.000000 -0.002411 -2.229639 0.114899 0.006887 2.229630 -0.115080 -1.378384 3.876753 -0.513579 2.210913 -1.853275 1.092726 0.000000 0.000000 0.000000 0.000000 0.000000 0.000000 1.603769 -1.821760 -0.398572 0.214465 -2.094683 -0.555849 0.880300 -3.517606 0.079383 -3.023176 2.887786 0.610587 0.000000 0.000000 0.000000 0.000000 0.000000 0.000000 -0.016579 0.147641 -29.482079 -0.000000 0.000000 0.000000 -0.000000 0.000000 0.000000 0.000000 0.000000 0.000000 -0.016579 0.147641 -29.482079 -0.000000 0.000000 0.000000 -0.000000 0.000000 0.000000 0.000000 0.000000 0.000000
104.364209 75.422296 411.616368 0.172150 -0.242708 29.889674 -0.028303 0.296212 -29.889237 -0.000000 0.000000 0.000000 -0.467284 1.146770 0.285143 0.000000 0.000000 0.000000 -0.039181 -4.238131 0.216920 -0.783177 4.359100 -0.125151 -2.010917 7.240890 -0.985595 4.068944 -3.156409 2.255520 0.000000 0.000000 0.000000 0.000000 0.000000 0.000000 3.073550 -3.459008 -0.715672 0.355233 -3.809985 -0.983758 1.425994 -5.574269 0.296475 -5.471014 4.429168 1.325434 0.000000 0.000000 0.000000 0.000000 0.000000 0.000000 -0.028303 0.296212 -29.889237 -0.000000 0.000000 0.000000 -0.370958 -0.351682 1.269274 0.000000 0.000000 0.000000 -0.028303 0.296212 -29.889237 -0.000000 0.000000 0.000000 -0.368317 -0.348889 1.265875 0.000000 0.000000 0.000000
104.285756 75.427819 411.593876 0.255238 -0.367115 30.289853 -0.035234 0.445733 -30.288898 -0.000000 0.000000 0.000000 -0.592013 1.627324 0.406357 0.000000 0.000000 0.000000 -0.112123 -6.016086 0.303918 -1.292401 6.208877 -0.109234 -2.938695 10.240876 -1.367295 5.453144 -3.955898 3.371267 0.000000 0.000000 0.000000 0.000000 0.000000 0.000000 4.421968 -4.918160 -0.965628 0.393960 -5.060908 -1.288329 1.712941 -6.512798 0.545373 -7.400090 4.988555 1.991145 0.000000 0.000000 0.000000 0.000000 0.000000 0.000000 -0.035234 0.445733 -30.288898 -0.000000 0.000000 0.000000 -0.527900 -0.512578 1.822436 0.000000 0.000000 0.000000 -0.035234 0.445733 -30.288898 -0.000000 0.000000 0.000000 -0.523589 -0.509280 1.817362 0.000000 0.000000 0.000000
104.214217 75.433582 411.575227 0.336428 -0.493671 30.682011 -0.037434 0.596231 -30.680367 -0.000000 0.000000 0.000000 -0.643077 2.045853 0.511617 0.000000 0.000000 0.000000 -0.222836 -7.557408 0.374225 -1.897088 7.830018 -0.033581 -3.752313 12.826260 -1.679567 6.276689 -4.338506 4.343613 0.000000 0.000000 0.000000 0.000000 0.000000 0.000000 5.660347 -6.206445 -1.160579 0.312712 -5.800957 -1.480023 1.814058 -6.633053 0.760639 -8.894326 4.889339 2.539534 0.000000 0.000000 0.000000 0.000000 0.000000 0.000000 -0.037434 0.596231 -30.680367 -0.000000 0.000000 0.000000 -0.666183 -0.662706 2.320923 0.000000 0.000000 0.000000 -0.037434 0.596231 -30.680367 -0.000000 0.000000 0.000000 -0.659968 -0.659509 2.314225 0.000000 0.000000 0.000000
104.149593 75.439588 411.560420 0.415787 -0.622462 31.065459 -0.034968 0.747736 -31.062972 0.443059 -0.710484 0.021281 -1.062312 3.113018 0.591821 0.000000 0.000000 0.000000 -0.817269 -8.147790 0.415407 -2.614838 9.219037 0.106453 -4.408405 15.019309 -1.932913 6.497053 -4.412302 5.105389 0.000000 0.000000 0.000000 0.000000 0.000000 0.000000 6.343609 -6.627355 -1.411207 0.100447 -6.012005 -1.570575 1.783652 -6.124940 0.905778 -10.032347 4.352817 2.945075 0.000000 0.000000 0.000000 0.000000 0.000000 0.000000 -0.225893 -0.071524 -31.108263 -0.259833 0.800080 0.048232 -0.786085 -0.801556 2.764557 0.000000 0.000000 0.000000 -0.034968 0.747736 -31.062972 -0.000000 0.000000 0.000000 -0.777728 -0.799072 2.756306 0.000000 0.000000 0.000000
104.084669 75.447336 411.543815 0.490303 -0.781350 31.487217 -0.010028 0.922383 -31.483793 0.524779 -0.928178 0.024745 -0.937375 3.730221 0.684090 0.000000 0.000000 0.000000 -1.246502 -9.278446 0.454691 -3.353655 10.835131 0.324552 -5.228861 17.651801 -2.191339 5.225016 -3.399995 5.800224 0.000000 0.000000 0.000000 0.000000 0.000000 0.000000 7.911677 -7.789914 -1.627362 -1.478988 -4.604796 -1.173759 2.791785 -5.309143 0.429415 -11.687227 7.668823 4.127207 0.000000 0.000000 0.000000 0.000000 0.000000 0.000000 -0.256133 -0.106017 -31.540173 -0.328254 1.005201 0.061013 -0.904530 -0.951079 3.218817 0.000000 0.000000 0.000000 -0.010028 0.922383 -31.483793 -0.000000 0.000000 0.000000 -0.891594 -0.952539 3.207704 0.000000 0.000000 0.000000
104.035969 75.451132 411.534012 0.565138 -0.921542 31.832647 -0.015351 0.238904 -31.819510 0.191830 -0.392683 0.016189 -0.754603 4.146795 0.726053 0.000000 0.000000 0.000000 -1.692694 -9.949637 0.465901 -4.581743 12.064828 0.698117 -4.945353 18.726800 -2.394551 2.365664 -2.868040 5.413191 0.000000 0.000000 0.000000 0.000000 0.000000 0.000000 8.732684 -8.597683 -1.760788 -1.867154 -3.438631 -1.089362 2.216050 -3.161669 0.485835 -11.638394 5.346544 3.821319 0.000000 0.000000 0.000000 0.000000 0.000000 0.000000 -0.293607 -0.137573 -31.894679 -0.389654 1.192810 0.073043 -1.002329 -1.082727 3.604856 0.000000 0.000000 0.000000 0.324235 0.324869 -31.980245 -0.670480 0.472788 0.150949 -0.984614 -1.089274 3.591644 0.000000 0.000000 0.000000
103.993190 75.459298 411.532356 0.645421 -1.047743 32.147021 -0.000745 0.219170 -32.130280 0.198088 -0.411070 0.018850 -0.674522 4.455858 0.751323 0.000000 0.000000 0.000000 -2.093881 -10.255032 0.460993 -5.910325 12.663703 1.095713 -4.634380 18.736914 -2.597716 2.281172 -3.105916 5.454317 0.000000 0.000000 0.000000 0.000000 0.000000 0.000000 9.324401 -8.934765 -1.846458 -2.079732 -2.451240 -1.065080 1.435065 -1.036901 0.598228 -10.885565 0.939664 3.023343 0.000000 0.000000 0.000000 0.000000 0.000000 0.000000 -0.344628 -0.179323 -32.218016 -0.450924 1.382313 0.085481 -1.065295 -1.180852 3.870312 0.000000 0.000000 0.000000 0.371794 0.432323 -32.299898 -0.731464 0.481915 0.156501 -1.043002 -1.192951 3.855564 0.000000 0.000000 0.000000
103.960102 75.470261 411.541335 0.719223 -1.148320 32.503218 0.021942 0.212148 -32.482898 0.205548 -0.417845 0.021827 -0.591894 4.491170 0.721355 0.000000 0.000000 0.000000 -2.321546 -10.303576 0.455565 -7.254743 12.725746 1.450718 -3.950461 19.330056 -2.679875 1.848427 -3.766195 5.297901 0.000000 0.000000 0.000000 0.000000 0.000000 0.000000 9.637090 -8.905653 -1.890305 -2.011717 -1.497972 -1.120079 -0.086972 0.860822 1.010797 -8.888028 -3.766597 1.864754 0.000000 0.000000 0.000000 0.000000 0.000000 0.000000 -0.387636 -0.178977 -32.579407 -0.659141 2.398658 0.270912 -0.931252 -2.127402 3.813501 0.000000 0.000000 0.000000 0.409799 0.600546 -32.641824 -0.743134 0.419842 0.141598 -1.071854 -1.245193 3.987491 0.000000 0.000000 0.000000
103.946329 75.481643 411.566303 0.785812 -1.240046 32.875125 0.050688 0.221339 -32.851510 0.215707 -0.427572 0.024778 -0.558851 4.428346 0.676412 0.000000 0.000000 0.000000 -2.366822 -10.020169 0.450216 -8.603668 12.229326 1.726118 -2.746401 19.552631 -2.683823 1.426164 -5.993701 4.496576 0.000000 0.000000 0.000000 0.000000 0.000000 0.000000 9.724576 -8.670874 -1.910112 -1.919660 -0.081961 -1.137741 -1.489085 1.889710 1.354909 -7.391911 -8.225875 0.901244 0.000000 0.000000 0.000000 0.000000 0.000000 0.000000 -0.386389 -0.109092 -32.949022 -0.686757 2.515829 0.292175 -0.936663 -2.235723 3.821171 0.000000 0.000000 0.000000 0.013050 1.467974 -32.866788 -0.000000 0.000000 0.000000 -1.073794 -1.267011 4.019370 0.000000 0.000000 0.000000
103.944372 75.491674 411.602114 0.844267 -1.322481 33.241219 0.083034 0.236759 -33.214628 0.224988 -0.435399 0.027523 -0.543733 4.269009 0.614686 0.000000 0.000000 0.000000 -2.586468 -10.118811 0.443918 -9.173763 12.711566 1.939174 -1.685279 19.478621 -2.706162 0.896877 -7.251225 3.980439 0.000000 0.000000 0.000000 0.000000 0.000000 0.000000 9.973933 -8.467295 -1.935351 -2.322099 1.842623 -0.974272 -3.894795 3.441900 2.015021 -4.709556 -10.694023 -0.118289 0.000000 0.000000 0.000000 0.000000 0.000000 0.000000 -0.353689 0.033917 -33.307434 -0.737855 2.495205 0.284849 -0.904451 -2.299723 3.883861 0.000000 0.000000 0.000000 0.018707 1.568842 -33.231731 -0.000000 0.000000 0.000000 -1.083718 -1.297825 4.080981 0.000000 0.000000 0.000000
103.945103 75.507804 411.645254 0.889218 -1.407339 33.583358 0.111011 0.248885 -33.554466 0.233862 -0.450015 0.029582 -0.481944 4.137446 0.555983 0.000000 0.000000 0.000000 -2.759292 -9.944140 0.432130 -9.414102 12.091553 1.943808 -0.891286 23.015513 -2.450112 1.261600 -9.556007 4.179515 0.000000 0.000000 0.000000 0.000000 0.000000 0.000000 10.180813 -8.137569 -1.956342 -2.975703 4.263713 -0.678500 -6.457666 3.555978 2.656063 -2.447771 -15.575715 -1.555241 0.000000 0.000000 0.000000 0.000000 0.000000 0.000000 -0.240434 0.206185 -33.633117 -0.808160 2.339130 0.253726 -0.875370 -2.282840 3.918927 0.000000 0.000000 0.000000 0.037552 1.664255 -33.572982 -0.000000 0.000000 0.000000 -1.082515 -1.315310 4.100231 0.000000 0.000000 0.000000
103.946535 75.521556 411.685844 0.921563 -1.478140 33.937311 0.138736 0.265416 -33.906743 0.240931 -0.460017 0.031166 -0.448978 4.021815 0.509674 0.000000 0.000000 0.000000 -2.851635 -9.602470 0.418387 -9.576646 12.397592 2.019911 -0.039441 22.777993 -2.475491 0.515574 -8.724056 4.162637 0.000000 0.000000 0.000000 0.000000 0.000000 0.000000 10.381408 -7.687499 -1.967962 -3.873339 6.835493 -0.262002 -9.356560 4.192303 3.267718 1.848414 -17.290763 -2.369318 0.000000 0.000000 0.000000 0.000000 0.000000 0.000000 -0.093581 0.313493 -33.968536 -0.945654 2.201427 0.215075 -0.844253 -2.275041 4.011342 0.000000 0.000000 0.000000 0.060513 1.740784 -33.926342 -0.000000 0.000000 0.000000 -1.095507 -1.347183 4.170330 0.000000 0.000000 0.000000
